<?xml version="1.0" encoding="UTF-8"?>
<svg id="Layer_1" data-name="Layer 1" xmlns="http://www.w3.org/2000/svg" viewBox="0 0 1326 432">
  <path fill-rule="evenodd" d="M235,0c111.664,10.915,197.86,102.283,198.111,215.515.251,113.616-86.089,205.547-198.111,216.485h-36C93.719,421.662,9.794,339.837,1.412,232.168c-.819-10.521-.817-21.823,0-32.324C9.797,92.111,93.712,10.391,199,0h36ZM198.648,144.07l-143.522-.061,71.793,143.556,71.729-143.495ZM235.02,287.661l-.037-143.399-35.997.044.017,143.743,36.016-.388ZM378.865,287.965l-71.961-143.444-71.614,143.489,143.575-.045Z"/>
  <path fill-rule="evenodd" d="M1326,269.118v17.835c-7.93,3.41-16.787,4.077-25.378,1.376-8.358-2.629-12.629-9.363-12.967-18.814-7.294,22.822-35.432,25.527-53.286,16.214-9.909-5.169-14.838-14.626-14.72-25.739.217-20.406,15.561-27.725,33.583-30.722l33.364-5.548c.352-5.647.16-11.721-2.932-16.272-3.688-5.425-10.564-6.2-16.652-5.828-8.9.544-14.859,6.78-14.52,16.138l-27.583-.125c-.002-14.517,7.24-26.232,19.561-32.412,16.426-8.239,36.154-8.217,52.479.803,10.214,5.644,17.131,16.93,17.229,28.81l.443,53.789,11.378.494ZM1284.055,256.048c1.842-4.622,2.455-9.007,2.477-13.96l-27.615,4.783c-4.805.832-9.177,4.464-10.155,8.373-1.147,4.585-.715,10.73,3.837,13.09,12.054,6.249,26.527.078,31.456-12.287Z"/>
  <path d="M919.126,288.282l-.307-101.609-40.391,100.988c-3.756.668-7.173.674-11.686.294l-40.749-99.924-.53,100.204-27.984-.024-.011-144.12,37.975-.137,37.198,94.533,36.861-94.41,37.517-.099-.052,144.26-27.841.044Z"/>
  <path fill-rule="evenodd" d="M1128.216,286.543c-21.168,11.032-46.094,1.182-55.379-20.536-7.979-18.663-8.691-40.283-1.191-59.06,8.288-20.75,29.334-31.654,50.464-26.216,10.01,2.576,15.324,9.337,20.216,18.962l.246-55.724,27.963.15-.02,143.841-20.946-.023-5.081-21.93c-4.344,7.852-7.626,16.03-16.272,20.536ZM1140.546,217.789c-3.88-9.96-12.646-15.813-22.947-15.193-9.784.589-17.833,7.013-20.732,17.265-3.388,11.979-2.913,25.118,3.051,36.349,4.157,7.827,12.822,11.336,21.307,10.578,21.945-1.959,26.058-31.703,19.32-49Z"/>
  <polygon points="587.633 143.91 617.78 143.865 567.948 287.932 535.647 288.018 485.222 144.096 515.956 144.012 551.716 249.564 587.633 143.91"/>
  <path fill-rule="evenodd" d="M675.041,286.35c-10.962-4.919-16.147-14.951-16.079-26.357.117-19.728,15.055-27.585,32.392-30.488l34.683-5.808c.207-5.219-.016-10.918-2.424-15.322-3.114-5.697-9.643-6.852-15.568-6.876-9.642-.039-16.572,6.301-16.308,16.264l-27.434-.06c-.349-14.074,7.235-26.401,19.65-32.607,13.444-6.721,28.04-7.388,42.493-3.388,15.743,4.357,27.139,17.493,27.247,34.423l.335,52.517,10.983.228-.035,18.199c-8.609,3.686-17.907,3.923-26.602.651-7.267-2.734-10.342-8.815-11.64-17.282-7.685,21.345-33.531,24.39-51.694,15.906ZM692.557,268.679c12.223,5.583,25.782-.491,30.694-12.281,1.935-4.645,2.542-9.063,2.641-14.301l-27.205,4.64c-4.878.832-9.483,4.534-10.466,8.11-1.419,5.156-.819,11.478,4.337,13.832Z"/>
  <path fill-rule="evenodd" d="M994.878,264.197c9.85,6.639,28.964,4.741,33.494-9.712l26.921.089c-5.668,32.208-41.174,42.216-67.578,32.595-32.416-11.811-39.377-53.531-25.874-81.476s52.964-34.264,76.909-16.383c15.923,11.891,20.651,33.174,19.349,52.917l-73.914.067c.572,8.417,3.466,17.032,10.692,21.903ZM984.734,224.242l44.628-.023c-.167-7.385-2.671-14.601-8.703-18.925-7.99-5.729-19.949-5.462-27.591.786-5.521,4.513-8.199,11.526-8.333,18.162Z"/>
  <polygon points="650.243 287.913 622.225 287.951 622.267 181.753 650.229 181.827 650.243 287.913"/>
  <polygon points="1210.783 287.849 1182.999 288.043 1182.999 181.82 1210.729 181.752 1210.783 287.849"/>
  <path d="M1196.508,168.821c-9.248-.171-15.164-6.208-15.253-14.809-.096-9.236,6.587-15.157,15.758-15.093,8.999.063,15.439,5.973,15.459,14.897.02,8.851-6.329,15.183-15.963,15.005Z"/>
  <path d="M647.81,164.282c-6.207,6.287-17.22,6.02-23.156.101-5.428-5.413-5.463-15.42-.143-20.877,6.01-6.165,17.001-6.198,23.184-.194,5.412,5.255,5.763,15.25.116,20.97Z"/>
</svg>