<?xml version="1.0" encoding="UTF-8"?>
<svg id="Layer_1" data-name="Layer 1" xmlns="http://www.w3.org/2000/svg" viewBox="0 0 432 432">
  <path d="M234,0c106.348,10.752,187.255,91.649,198,198v36c-10.739,106.337-91.662,187.266-198,198h-36C91.659,421.261,10.741,340.34,0,234v-36C10.743,91.61,91.639,10.784,198,0h36ZM197.648,144.07l-143.523-.061,71.793,143.556,71.73-143.495ZM234.02,287.661l-.037-143.399-35.997.044.018,143.743,36.016-.388ZM377.865,287.965l-71.962-143.444-71.614,143.488,143.575-.045Z"/>
  <path d="M198,0C91.639,10.784,10.743,91.61,0,198V0h198Z" fill="#fff"/>
  <path d="M234,0h198v198C421.255,91.649,340.348,10.752,234,0Z" fill="#fff"/>
  <path d="M198,432H0v-198c10.741,106.34,91.659,187.261,198,198Z" fill="#fff"/>
  <path d="M432,234v198h-198c106.338-10.734,187.261-91.663,198-198Z" fill="#fff"/>
  <polygon points="197.648 144.07 125.919 287.565 54.125 144.01 197.648 144.07" fill="#fff"/>
  <polygon points="377.865 287.965 234.29 288.01 305.903 144.521 377.865 287.965" fill="#fff"/>
  <polygon points="234.02 287.661 198.005 288.049 197.987 144.306 233.984 144.262 234.02 287.661" fill="#fff"/>
</svg>